<?xml version="1.0" encoding="utf-8"?>
<svg class="geolonia-svg-map"
     viewBox="340 -10 700 800"
     xmlns="http://www.w3.org/2000/svg">

  <title>Japanese Prefectures</title>

  <desc>
    Base map created by Geolonia (https://geolonia.com/).
    Modified, reorganized, and redesigned by Shoji Masafumi.
  </desc>

  <g class="svg-map"
     transform="matrix(1.028807, 0, 0, 1.028807, -47.544239, -28.806583)">
    <g class="prefectures" transform="matrix(1, 0, 0, 1, 6, 18)">
 
      <g class="aichi chubu prefecture" data-code="23" stroke-linejoin="round" fill="#EEEEEE" fill-rule="nonzero" stroke="#000000" stroke-width="1.0" transform="translate(469.000000, 673.000000)">
        <title>愛知 / Aichi</title>
        <polygon points="42 46 18 52 20 47 23 49 31 43 33 46 35 43 34 40 28 37 26 41 18 40 14 37 16 29 12 40 16 45 13 45 9 41 10 36 8 33 8 28 12 21 5 25 0 17 1 11 5 3 15 0 21 8 26 10 33 8 39 12 46 8 47 14 52 11 60 13 50 33 42 38"/>
      </g>
      <g class="shizuoka chubu prefecture" data-code="22" stroke-linejoin="round" fill="#EEEEEE" fill-rule="nonzero" stroke="#000000" stroke-width="1.0" transform="translate(511.000000, 659.000000)">
        <title>静岡 / Shizuoka</title>
        <polygon points="73 14 77 14 77 27 83 31 81 36 85 42 85 46 78 55 77 61 70 65 64 59 67 45 65 41 66 38 72 37 62 31 55 33 51 38 53 41 44 45 42 54 36 61 38 65 25 61 0 60 0 52 8 47 18 27 33 17 33 5 37 0 40 8 39 19 44 20 48 29 53 27 52 20 56 12 61 17"/>
      </g>
      <g class="gifu chubu prefecture" data-code="21" stroke-linejoin="round" fill="#EEEEEE" fill-rule="nonzero" stroke="#000000" stroke-width="1.0" transform="translate(450.000000, 608.000000)">
        <title>岐阜 / Gifu</title>
        <polygon points="66 4 69 10 64 20 67 24 66 28 60 35 55 35 53 40 59 43 64 50 62 53 68 59 66 63 68 66 65 66 67 70 65 73 58 77 52 73 45 75 40 73 34 65 24 68 20 76 19 82 12 75 6 77 4 76 8 66 7 63 4 56 1 56 0 50 5 41 11 44 12 42 25 41 28 37 22 29 24 23 29 13 26 10 30 5 34 7 35 11 44 0 47 2 52 0 52 2 56 0"/>
      </g>
      <g class="nagano chubu prefecture" data-code="20" stroke-linejoin="round" fill="#EEEEEE" fill-rule="nonzero" stroke="#000000" stroke-width="1.0" transform="translate(503.000000, 572.000000)">
        <title>長野 / Nagano</title>
        <polygon points="68 18 59 21 60 23 55 27 54 34 57 39 66 39 67 45 64 47 66 53 63 54 66 57 66 63 70 65 71 70 68 72 64 69 58 71 53 66 43 77 46 80 43 82 45 87 41 92 41 104 26 114 18 112 13 115 12 109 14 106 12 102 15 102 13 99 15 95 9 89 11 86 6 79 0 76 2 71 7 71 13 64 14 60 11 56 16 46 13 40 19 32 18 29 21 28 22 17 27 10 27 7 34 8 34 13 36 14 44 10 48 12 48 7 53 2 60 0 63 2 63 7 68 11"/>
      </g>
      <g class="yamanashi chubu prefecture" data-code="19" stroke-linejoin="round" fill="#EEEEEE" fill-rule="nonzero" stroke="#000000" stroke-width="1.0" transform="translate(546.000000, 638.000000)">
        <title>山梨 / Yamanashi</title>
        <polygon points="2 21 0 16 3 14 0 11 10 0 15 5 21 3 25 6 28 4 39 7 43 15 48 18 47 27 38 35 26 38 21 33 17 41 18 48 13 50 9 41 4 40 5 29"/>
      </g>
      <g class="fukui chubu prefecture" data-code="18" stroke-linejoin="round" fill="#EEEEEE" fill-rule="nonzero" stroke="#000000" stroke-width="1.0" transform="translate(408.000000, 618.000000)">
        <title>福井 / Fukui</title>
        <polygon points="40 0 46 8 56 9 61 14 66 13 64 19 70 27 67 31 54 32 53 34 47 31 42 40 35 37 36 45 33 44 33 47 27 50 24 48 21 55 18 54 15 58 3 56 0 51 1 45 3 49 10 46 6 49 13 50 15 47 13 48 13 45 19 47 17 45 20 43 18 40 26 41 25 35 28 33 29 38 31 39 32 32 25 19 34 6 34 2"/>
      </g>
      <g class="ishikawa chubu prefecture" data-code="17" stroke-linejoin="round" fill="#EEEEEE" fill-rule="nonzero" stroke="#000000" stroke-width="1.0" transform="translate(448.000000, 541.000000)">
        <title>石川 / Ishikawa</title>
        <path d="M37,26 L34,23 L41,23 L37,26 Z M28,77 L31,80 L26,90 L21,91 L16,86 L6,85 L0,77 L15,62 L26,44 L27,33 L25,29 L25,24 L22,23 L27,10 L52,0 L56,1 L57,5 L51,6 L50,15 L46,14 L39,22 L37,18 L34,19 L32,28 L38,30 L41,26 L41,36 L33,38 L31,48 L28,50 L30,54 L28,57 L29,61 L27,69 L28,77 Z"/>
      </g>
      <g class="toyama chubu prefecture" data-code="16" stroke-linejoin="round" fill="#EEEEEE" fill-rule="nonzero" stroke="#000000" stroke-width="1.0" transform="translate(475.000000, 575.000000)">
        <title>富山 / Toyama</title>
        <polygon points="41 37 31 33 27 35 27 33 22 35 19 33 10 44 9 40 5 38 1 43 0 35 2 27 1 23 3 20 1 16 4 14 6 4 14 2 11 8 23 15 31 11 33 3 43 0 47 3 50 14 49 25 46 26 47 29"/>
      </g>
      <g class="niigata chubu prefecture" data-code="15" stroke-linejoin="round" fill="#EEEEEE" fill-rule="nonzero" stroke="#000000" stroke-width="1.0" transform="translate(518.000000, 476.000000)">
        <title>新潟 / Niigata</title>
        <path d="M7,113 L4,102 L0,99 L14,94 L23,87 L30,87 L45,75 L55,60 L60,46 L79,34 L80,36 L79,35 L85,28 L94,0 L102,3 L102,10 L111,16 L109,20 L101,23 L101,31 L98,39 L101,44 L104,46 L95,56 L97,65 L89,65 L88,68 L79,69 L78,72 L80,76 L76,82 L81,87 L80,101 L73,94 L71,98 L67,99 L68,104 L65,105 L65,108 L53,114 L53,107 L48,103 L48,98 L45,96 L38,98 L33,103 L33,108 L29,106 L21,110 L19,109 L19,104 L12,103 L12,106 L7,113 Z M36,46 L28,47 L35,38 L33,35 L30,37 L30,31 L34,23 L43,14 L39,30 L46,31 L43,40 L36,46 Z"/>
      </g>
      <g class="kanagawa kanto prefecture" data-code="14" stroke-linejoin="round" fill="#EEEEEE" fill-rule="nonzero" stroke="#000000" stroke-width="1.0" transform="translate(584.000000, 656.000000)">
        <title>神奈川 / Kanagawa</title>
        <polygon points="10 0 24 6 28 11 28 6 30 6 27 4 30 2 44 9 40 13 36 12 39 16 36 16 36 23 42 26 38 30 39 33 35 33 36 28 33 24 26 22 15 25 11 28 12 34 10 34 4 30 4 17 0 17 9 9"/>
      </g>
      <g class="tokyo kanto prefecture" data-code="13" stroke-linejoin="round" fill="#EEEEEE" fill-rule="nonzero" stroke="#000000" stroke-width="1.0" transform="translate(585.000000, 642.000000)">
        <title>東京 / Tokyo</title>
        <path d="M49,173 L49,178 L44,171 L49,173 Z M34,113 L32,115 L29,114 L31,111 L34,113 Z M11,104 L13,106 L11,107 L11,104 Z M18,98 L16,96 L18,92 L18,98 Z M22,75 L22,69 L26,70 L26,76 L22,75 Z M48,7 L49,12 L47,16 L41,15 L43,19 L39,20 L43,20 L43,23 L29,16 L26,18 L29,20 L27,20 L27,25 L23,20 L9,14 L4,11 L0,3 L3,0 L18,4 L23,8 L30,5 L30,9 L36,6 L40,7 L42,5 L48,7 Z"/>
      </g>
      <g class="chiba kanto prefecture" data-code="12" stroke-linejoin="round" fill="#EEEEEE" fill-rule="nonzero" stroke="#000000" stroke-width="1.0" transform="translate(627.000000, 629.000000)">
        <title>千葉 / Chiba</title>
        <polygon points="5 29 7 25 6 20 6 13 0 0 8 10 19 15 37 11 37 8 55 20 55 24 45 24 34 35 32 57 19 61 7 75 0 71 5 69 3 66 4 63 3 58 5 53 1 49 4 45 7 46 7 42 13 39 18 33 11 26 6 30"/>
      </g>
      <g class="saitama kanto prefecture" data-code="11" stroke-linejoin="round" fill="#EEEEEE" fill-rule="nonzero" stroke="#000000" stroke-width="1.0" transform="translate(573.000000, 618.000000)">
        <title>埼玉 / Saitama</title>
        <polygon points="48 4 49 5 51 12 54 11 54 11 60 24 60 31 54 29 52 31 48 30 42 33 42 29 35 32 30 28 15 24 12 27 1 24 0 19 16 10 21 0 32 2 38 6"/>
      </g>
      <g class="gunma kanto prefecture" data-code="10" stroke-linejoin="round" fill="#EEEEEE" fill-rule="nonzero" stroke="#000000" stroke-width="1.0" transform="translate(557.000000, 570.000000)">
        <title>群馬 / Gunma</title>
        <polygon points="64 52 54 54 48 50 37 48 32 58 16 67 12 65 12 59 9 56 12 55 10 49 13 47 12 41 3 41 0 36 1 29 6 25 5 23 14 20 26 14 26 11 29 10 28 5 32 4 34 0 41 7 49 9 47 12 50 14 47 17 46 26 54 29 48 42 53 49 62 48"/>
      </g>
      <g class="tochigi kanto prefecture" data-code="9" stroke-linejoin="round" fill="#EEEEEE" fill-rule="nonzero" stroke="#000000" stroke-width="1.0" transform="translate(603.000000, 563.000000)">
        <title>栃木 / Tochigi</title>
        <polygon points="19 60 18 59 16 55 7 56 2 49 8 36 0 33 1 24 4 21 1 19 3 16 28 0 40 3 46 7 47 13 47 24 48 27 45 29 47 39 44 46 33 48 30 53 27 53 26 57"/>
      </g>
      <g class="ibaraki kanto prefecture" data-code="8" stroke-linejoin="round" fill="#EEEEEE" fill-rule="nonzero" stroke="#000000" stroke-width="1.0" transform="translate(622.000000, 575.000000)">
        <title>茨城 / Ibaraki</title>
        <polygon points="5 54 5 54 2 55 0 48 7 45 8 41 11 41 14 36 25 34 28 27 26 17 29 15 28 12 28 1 38 10 44 4 44 0 54 5 46 29 47 35 44 42 46 52 51 61 49 63 51 66 52 62 60 74 42 62 42 65 24 69 13 64"/>
      </g>
      <g class="fukushima tohoku prefecture" data-code="7" stroke-linejoin="round" fill="#EEEEEE" fill-rule="nonzero" stroke="#000000" stroke-width="1.0" transform="translate(594.000000, 511.000000)">
        <title>福島 / Fukushima</title>
        <polygon points="82 69 72 64 72 68 66 74 56 65 55 59 49 55 37 52 12 68 4 66 5 52 0 47 4 41 2 37 3 34 12 33 13 30 21 30 19 21 28 11 25 9 32 11 38 10 40 14 44 13 47 15 53 14 56 10 54 9 55 0 61 0 65 4 74 4 75 10 80 12 79 10 83 10 83 4 87 4 93 18 93 45 91 61"/>
      </g>
      <g class="yamagata tohoku prefecture" data-code="6" stroke-linejoin="round" fill="#EEEEEE" fill-rule="nonzero" stroke="#000000" stroke-width="1.0" transform="translate(612.000000, 439.000000)">
        <title>山形 / Yamagata</title>
        <polygon points="14 1 24 0 28 5 42 8 44 13 48 14 53 22 51 30 48 30 52 41 45 53 46 59 43 65 36 67 37 72 36 81 38 82 35 86 29 87 26 85 22 86 20 82 14 83 7 81 4 76 7 68 7 60 15 57 17 53 8 47 8 40 0 37 13 14"/>
      </g>
      <g class="akita tohoku prefecture" data-code="5" stroke-linejoin="round" fill="#EEEEEE" fill-rule="nonzero" stroke="#000000" stroke-width="1.0" transform="translate(617.000000, 352.000000)">
        <title>秋田 / Akita</title>
        <polygon points="54 97 47 102 43 101 39 100 37 95 23 92 19 87 9 88 11 78 16 69 17 47 11 39 3 42 0 33 6 36 12 28 15 19 15 11 10 6 14 7 17 3 29 5 32 2 39 7 42 5 45 7 55 0 55 5 60 5 59 16 55 21 57 39 52 40 55 44 52 48 54 53 50 59 47 70 55 83 52 86 55 91"/>
      </g>
      <g class="miyagi tohoku prefecture" data-code="4" stroke-linejoin="round" fill="#EEEEEE" fill-rule="nonzero" stroke="#000000" stroke-width="1.0" transform="translate(648.000000, 445.000000)">
        <title>宮城 / Miyagi</title>
        <path d="M33,70 L29,70 L29,76 L25,76 L26,78 L21,76 L20,70 L11,70 L7,66 L1,66 L0,61 L7,59 L10,53 L9,47 L16,35 L12,24 L15,24 L17,16 L12,8 L16,9 L23,4 L33,9 L41,8 L39,12 L45,16 L49,11 L55,14 L57,0 L64,1 L67,8 L62,5 L63,10 L59,14 L62,19 L60,17 L56,20 L60,22 L57,28 L61,28 L61,32 L58,30 L60,34 L57,35 L58,38 L61,37 L59,39 L61,41 L61,45 L57,43 L58,40 L55,41 L57,39 L56,37 L39,40 L36,43 L40,45 L35,46 L38,47 L32,57 L33,70 Z M43,41 L44,43 L42,43 L43,41 Z"/>
      </g>
      <g class="iwate tohoku prefecture" data-code="3" stroke-linejoin="round" fill="#EEEEEE" fill-rule="nonzero" stroke="#000000" stroke-width="1.0" transform="translate(664.000000, 354.000000)">
        <title>岩手 / Iwate</title>
        <polygon points="48 92 41 91 39 105 33 102 29 107 23 103 25 99 17 100 7 95 8 89 5 84 8 81 0 68 3 57 7 51 5 46 8 42 5 38 10 37 8 19 12 14 16 15 29 5 31 8 35 5 40 7 46 0 54 11 52 16 57 19 55 23 61 28 64 43 62 53 65 49 66 54 68 55 62 60 64 62 67 59 67 63 63 63 63 68 60 69 65 68 60 71 62 73 60 75 64 74 58 81 62 83 57 83 60 86 57 86 59 88 53 89 52 86 54 91 52 91 52 94 50 90"/>
      </g>
      <g class="aomori tohoku prefecture" data-code="2" stroke-linejoin="round" fill="#EEEEEE" fill-rule="nonzero" stroke="#000000" stroke-width="1.0" transform="translate(624.000000, 287.000000)">
        <title>青森 / Aomori</title>
        <polygon points="3 71 3 63 0 60 6 51 12 51 18 47 21 31 17 27 20 26 21 19 27 23 31 20 35 23 37 38 40 45 46 41 45 37 47 33 58 42 61 39 65 23 61 16 55 22 41 25 47 0 64 11 73 6 71 37 73 51 77 62 81 61 86 67 80 74 75 72 71 75 69 72 56 82 52 81 53 70 48 70 48 65 38 72 35 70 32 72 25 67 22 70 10 68 7 72"/>
      </g>
      <g class="hokkaido prefecture" data-code="1" stroke-linejoin="round" fill="#EEEEEE" fill-rule="nonzero" stroke="#000000" stroke-width="1.0" transform="translate(602.000000, 10.000000)">
        <title>北海道 / Hokkaido</title>
        <path d="M4,240 L3,245 L0,246 L0,237 L6,235 L4,240 Z M33,261 L32,250 L28,243 L23,242 L21,237 L17,236 L15,231 L19,223 L17,212 L19,209 L28,207 L34,198 L37,202 L39,201 L43,192 L49,187 L39,173 L40,166 L47,164 L60,174 L71,171 L71,174 L78,177 L83,174 L89,165 L83,140 L86,135 L93,132 L97,126 L96,103 L100,95 L101,85 L98,67 L90,48 L93,39 L92,33 L94,36 L99,35 L105,28 L131,55 L139,68 L155,85 L184,104 L213,109 L214,113 L219,118 L238,118 L260,91 L262,96 L252,119 L252,129 L255,135 L265,138 L263,140 L264,137 L258,137 L263,149 L269,156 L273,157 L280,149 L287,148 L277,156 L275,163 L258,166 L256,172 L252,177 L247,177 L245,175 L246,173 L243,172 L240,178 L243,180 L228,181 L220,178 L205,186 L191,202 L182,216 L179,225 L180,240 L178,248 L164,237 L141,228 L113,211 L100,209 L103,206 L88,214 L72,230 L69,227 L73,227 L68,226 L66,220 L58,212 L47,213 L42,220 L39,230 L40,234 L52,242 L62,242 L71,254 L80,257 L82,260 L76,265 L72,267 L63,263 L60,265 L60,261 L57,260 L55,265 L48,269 L48,278 L40,282 L37,287 L30,284 L27,278 L28,269 L33,261 Z M71,48 L73,45 L77,47 L79,52 L75,55 L71,52 L71,48 Z M65,35 L65,33 L67,35 L66,45 L63,35 L65,35 Z M369,17 L367,13 L365,13 L363,17 L365,23 L364,26 L359,28 L357,35 L350,34 L351,41 L341,50 L341,54 L335,54 L335,56 L339,58 L339,62 L336,65 L332,64 L332,69 L329,66 L330,71 L327,78 L331,79 L336,70 L341,69 L346,59 L356,50 L358,40 L363,43 L369,41 L384,24 L397,15 L406,13 L407,10 L404,6 L407,2 L402,0 L396,2 L384,20 L373,22 L369,17 Z M290,99 L295,93 L303,91 L308,84 L311,85 L314,79 L304,82 L296,77 L293,79 L289,89 L280,104 L280,107 L266,122 L268,129 L273,128 L273,132 L274,119 L282,114 L283,109 L286,109 L287,102 L290,99 Z M322,125 L334,115 L329,113 L325,116 L326,117 L319,119 L319,123 L321,122 L322,125 Z M300,142 L304,137 L297,139 L300,142 Z M291,146 L293,143 L289,144 L291,146 Z"/>
      </g>
    </g>
  </g>
</svg>