<?xml version="1.0" encoding="utf-8"?>
<svg class="geolonia-svg-map"
     viewBox="-150 600 650 600"
     xmlns="http://www.w3.org/2000/svg">

  <title>Japanese Prefectures</title>

  <desc>
    Base map created by Geolonia (https://geolonia.com/).
    Modified, reorganized, and redesigned by Shoji Masafumi.
  </desc>

  <g class="svg-map"
     transform="matrix(1.028807, 0, 0, 1.028807, -47.544239, -28.806583)">
    <g class="prefectures" transform="matrix(1, 0, 0, 1, 6, 18)">
      <g class="okinawa kyushu-okinawa prefecture" data-code="47" stroke-linejoin="round" fill="#EEEEEE" fill-rule="nonzero" stroke="#000000" stroke-width="1.0" transform="translate(-220, 1100) scale(0.8)">
        <title>沖縄 / Okinawa</title>
        <polygon points="4 109 6 110 4 111 0 110"/>
        <polygon points="48 121 55 123 51 129 39 124 42 122 44 125 46 118"/>
        <polygon points="132 113 130 110 132 110 130 108 133 105 132 100 135 108 142 114"/>
        <polygon points="225 23 224 28 219 23 223 21"/>
        <polygon points="73 117 77 112 79 113 73 120 72 126 66 127 64 125 67 122 63 119 71 120"/>
        <polygon points="287 20 291 17 286 15 285 8 292 10 292 14 299 13 298 11 307 0 309 5 309 9 305 15 300 15 299 19 293 19 294 21 288 25 281 25 286 34 281 31 276 39 280 41 270 46 270 38 277 32 275 24 280 25"/>
        <polygon points="127 106 126 103 128 104"/>
        <polygon points="279 8 279 6 283 8"/>
        <polygon points="293 11 294 13 292 12"/>
      </g>
<g class="kagoshima kyushu kyushu-okinawa prefecture"
   data-code="46"
   stroke-linejoin="round"
   fill="#EEEEEE"
   fill-rule="nonzero"
   stroke="#000000"
   stroke-width="1.0"
   transform="translate(96 17)">
  <title>鹿児島 / Kagoshima</title>

  <!-- 鹿児島本土・種子島・屋久島 -->
  <polygon points="23 949 26 951 23 952"/>
  <polygon points="33 960 32 954 39 950 48 956 47 961 41 965 35 964"/>
  <polygon points="64 953 64 958 59 959 58 952 62 949 63 939 70 929 71 938"/>
  <polygon points="38 844 43 848 52 844 57 850 56 852 61 859 66 864 65 869 70 871 73 880 80 881 80 888 78 891 75 890 70 896 75 899 73 903 76 902 69 905 66 910 50 918 50 913 55 910 59 898 53 889 54 884 48 881 53 879 54 883 57 884 61 878 54 872 50 874 44 887 46 898 51 901 49 906 43 907 40 901 27 901 28 897 25 896 27 894 22 890 31 890 35 880 32 871 27 867 30 860 28 848 31 846 35 848"/>
  <polygon points="31 837 34 836 33 838"/>
  <polygon points="27 848 24 842 29 840 30 844"/>
  <polygon points="4 868 6 865 7 867 2 875 0 874"/>
  <polygon points="12 864 9 861 14 861"/>

  <!-- 鹿児島の離島群：親の translate(96,17) を打ち消す -->
  <g class="kagoshima-remote-islands"
     transform="translate(-96 -17) translate(-180 970) scale(0.8)">
    <polygon points="284 149 280 150 279 146 289 144"/>
    <polygon points="301 126 301 118 306 118 305 122 309 126 308 129 303 132 300 128"/>
    <polygon points="363 98 360 99 359 97 365 93"/>
    <polygon points="344 90 331 98 335 101 330 104 327 103 329 107 323 102 325 99 316 97 324 97 325 95 321 94 335 88 337 90 339 86 344 85 342 89 344 87 345 89 347 82 349 88"/>
    <polygon points="324 108 322 106 320 108 318 101 323 102 322 105 328 107 325 109 326 107"/>
    <polygon points="355 12 352 16 352 13"/>
    <polygon points="361 1 363 0 365 4"/>
  </g>
</g>
      <g class="miyazaki kyushu kyushu-okinawa prefecture" data-code="45" stroke-linejoin="round" fill="#EEEEEE" fill-rule="nonzero" stroke="#000000" stroke-width="1.0" transform="translate(152.000000, 824.000000)">
        <title>宮崎 / Miyazaki</title>
        <polygon points="36 0 38 1 43 0 48 5 56 5 59 1 63 2 63 7 65 7 54 17 53 21 56 22 52 23 51 25 53 26 47 34 41 51 39 74 34 79 32 91 27 89 22 84 24 81 24 74 17 73 14 64 9 62 10 57 5 52 0 45 1 43 22 41 19 35 23 30 18 23 18 16 23 14 32 0"/>
      </g>
      <g class="oita kyushu kyushu-okinawa prefecture" data-code="44" stroke-linejoin="round" fill="#EEEEEE" fill-rule="nonzero" stroke="#000000" stroke-width="1.0" transform="translate(163.000000, 771.000000)">
        <title>大分 / Oita</title>
        <polygon points="0 34 3 29 0 26 2 24 1 19 5 13 12 9 19 10 20 3 33 7 38 0 47 4 49 10 46 18 43 17 43 20 35 22 36 26 40 28 56 27 50 36 56 36 53 38 56 40 61 38 62 41 57 41 55 45 65 49 59 49 61 51 57 54 60 55 54 56 54 60 52 60 52 55 48 54 45 58 37 58 32 53 27 54 25 53 21 49 22 43 15 30 9 30 10 36 8 39"/>
      </g>
      <g class="kumamoto kyushu kyushu-okinawa prefecture" data-code="43" stroke-linejoin="round" fill="#EEEEEE" fill-rule="nonzero" stroke="#000000" stroke-width="1.0" transform="translate(115.000000, 800.000000)">
        <title>熊本 / kumamoto</title>
        <path d="M8,37 L13,38 L13,48 L5,57 L1,58 L1,52 L5,51 L0,50 L4,40 L3,37 L8,37 Z M20,47 L14,47 L12,43 L19,39 L26,39 L23,47 L20,47 Z M24,34 L26,34 L26,38 L23,38 L24,34 Z M38,67 L33,61 L24,65 L19,61 L32,46 L30,40 L32,41 L31,39 L37,34 L26,34 L34,28 L35,23 L27,15 L26,10 L31,10 L30,7 L35,3 L39,4 L40,0 L48,5 L56,10 L58,7 L57,1 L63,1 L70,14 L69,20 L73,24 L69,24 L60,38 L55,40 L55,47 L60,54 L56,59 L59,65 L38,67 Z"/>
      </g>
      <g class="nagasaki kyushu kyushu-okinawa prefecture" data-code="42" stroke-linejoin="round" fill="#EEEEEE" fill-rule="nonzero" stroke="#000000" stroke-width="1.0" transform="translate(44.000000, 700.000000)">
        <title>長崎 / Nagasaki</title>
        <path d="M53,1 L55,0 L57,2 L54,5 L55,9 L49,15 L48,19 L51,18 L49,22 L51,21 L48,25 L48,20 L46,22 L46,19 L45,22 L42,20 L44,20 L45,15 L47,15 L45,14 L49,10 L46,8 L48,3 L52,3 L53,1 Z M46,29 L43,35 L37,36 L40,22 L41,24 L45,25 L44,22 L45,26 L48,25 L46,29 Z M67,59 L68,61 L64,63 L60,59 L62,59 L61,56 L64,53 L67,55 L66,57 L68,58 L67,59 Z M28,110 L25,115 L26,110 L23,107 L26,106 L26,102 L28,102 L30,94 L28,105 L33,106 L30,108 L28,106 L28,110 Z M24,112 L21,111 L21,109 L23,111 L22,108 L24,112 Z M19,113 L20,110 L19,116 L16,111 L19,113 Z M6,118 L9,117 L10,119 L12,115 L16,125 L9,124 L9,129 L0,126 L1,124 L3,126 L4,125 L2,125 L5,122 L4,116 L6,118 Z M65,80 L62,81 L64,78 L65,80 Z M67,82 L70,84 L67,86 L67,82 Z M29,88 L31,85 L33,87 L29,88 Z M54,76 L51,77 L55,74 L54,76 Z M66,86 L64,89 L66,96 L73,98 L72,102 L78,109 L86,112 L79,117 L92,118 L94,123 L92,130 L82,134 L80,128 L85,124 L84,122 L79,121 L71,123 L68,129 L60,134 L64,129 L63,126 L65,127 L67,123 L64,125 L63,118 L59,117 L56,111 L59,100 L63,104 L62,108 L63,106 L66,108 L64,115 L75,118 L71,112 L72,107 L69,103 L66,105 L65,99 L62,99 L62,97 L58,100 L60,98 L57,96 L57,93 L57,95 L53,93 L57,87 L54,86 L55,83 L60,82 L60,85 L65,84 L66,86 Z M49,88 L48,92 L42,94 L47,91 L45,89 L48,84 L52,84 L54,81 L55,84 L49,88 Z M15,115 L15,113 L18,116 L15,118 L15,115 Z M64,101 L63,104 L62,101 L64,98 L64,101 Z"/>
      </g>
      <g class="saga kyushu kyushu-okinawa prefecture" data-code="41" stroke-linejoin="round" fill="#EEEEEE" fill-rule="nonzero" stroke="#000000" stroke-width="1.0" transform="translate(108.000000, 773.000000)">
        <title>佐賀 / Saga</title>
        <polygon points="15 6 28 6 34 12 41 10 40 16 32 21 30 28 25 23 19 29 22 39 14 36 8 29 9 25 2 23 0 16 2 13 5 17 4 13 6 9 2 6 3 4 6 6 6 0 7 2 11 2 12 7"/>
      </g>
      <g class="fukuoka kyushu kyushu-okinawa prefecture" data-code="40" stroke-linejoin="round" fill="#EEEEEE" fill-rule="nonzero" stroke="#000000" stroke-width="1.0" transform="translate(123.000000, 752.000000)">
        <title>福岡 / Fukuoka</title>
        <polygon points="40 53 32 48 31 52 27 51 22 55 23 58 18 58 18 52 15 49 17 42 25 37 26 31 19 33 13 27 0 27 7 23 3 20 10 15 13 21 20 20 21 15 17 17 14 14 19 15 23 12 25 5 35 3 36 0 42 1 38 5 41 5 43 2 46 4 53 0 49 8 52 10 50 11 55 22 60 22 59 29 52 28 45 32 41 38 42 43 40 45 43 48"/>
      </g>
      <g class="kochi shikoku prefecture" data-code="39" stroke-linejoin="round" fill="#EEEEEE" fill-rule="nonzero" stroke="#000000" stroke-width="1.0" transform="translate(251.000000, 765.000000)">
        <title>高知 / Kochi</title>
        <path d="M61,0 L74,6 L80,4 L81,12 L88,13 L86,17 L88,21 L94,22 L87,41 L75,25 L65,21 L55,23 L55,21 L56,24 L44,28 L50,28 L44,29 L42,32 L41,29 L38,33 L39,38 L37,44 L34,44 L30,52 L25,53 L25,61 L22,64 L25,70 L21,66 L14,68 L9,65 L5,67 L6,61 L10,60 L9,57 L6,57 L8,54 L5,41 L9,44 L15,36 L20,33 L16,24 L27,23 L30,13 L37,4 L61,0 Z M1,69 L0,70 L0,67 L1,69 Z"/>
      </g>
      <g class="ehime shikoku prefecture" data-code="38" stroke-linejoin="round" fill="#EEEEEE" fill-rule="nonzero" stroke="#000000" stroke-width="1.0" transform="translate(225.000000, 737.000000)">
        <title>愛媛 / Ehime</title>
        <path d="M34,21 L31,20 L35,17 L34,21 Z M55,6 L51,6 L55,0 L57,3 L55,6 Z M60,5 L61,5 L60,7 L57,6 L60,5 Z M58,10 L54,12 L55,7 L60,8 L58,10 Z M32,85 L25,83 L25,86 L23,86 L24,81 L27,82 L21,76 L24,76 L22,72 L25,72 L22,71 L23,69 L20,67 L24,70 L28,66 L28,63 L24,63 L27,60 L19,60 L21,57 L19,56 L22,51 L16,50 L8,56 L0,57 L35,37 L41,18 L50,15 L48,11 L51,10 L59,24 L70,20 L80,22 L84,18 L89,20 L87,28 L63,32 L56,41 L53,51 L42,52 L46,61 L41,64 L35,72 L31,69 L34,82 L32,85 Z"/>
      </g>
      <g class="kagawa shikoku prefecture" data-code="37" stroke-linejoin="round" fill="#EEEEEE" fill-rule="nonzero" stroke="#000000" stroke-width="1.0" transform="translate(308.000000, 724.000000)">
        <title>香川 / Kagawa</title>
        <path d="M6,33 L1,31 L4,21 L0,17 L6,20 L19,10 L26,13 L30,9 L31,14 L34,11 L37,14 L36,17 L45,22 L44,25 L31,23 L22,30 L15,27 L6,33 Z M27,5 L25,4 L29,4 L27,5 Z M40,0 L42,0 L40,8 L38,7 L38,5 L35,9 L35,5 L31,3 L40,0 Z"/>
      </g>
      <g class="tokushima shikoku prefecture" data-code="36" stroke-linejoin="round" fill="#EEEEEE" fill-rule="nonzero" stroke="#000000" stroke-width="1.0" transform="translate(312.000000, 744.000000)">
        <title>徳島 / Tokushima</title>
        <path d="M50,2 L52,0 L51,4 L50,2 Z M41,2 L49,0 L49,3 L52,4 L48,13 L55,20 L50,24 L57,26 L38,36 L33,43 L27,42 L25,38 L27,34 L20,33 L19,25 L13,27 L0,21 L2,13 L11,7 L18,10 L27,3 L40,5 L41,2 Z"/>
      </g>
      <g class="yamaguchi chugoku prefecture" data-code="35" stroke-linejoin="round" fill="#EEEEEE" fill-rule="nonzero" stroke="#000000" stroke-width="1.0" transform="translate(168.000000, 710.000000)">
        <title>山口 / Yamaguchi</title>
        <path d="M45,0 L47,6 L43,11 L45,15 L50,15 L48,20 L50,24 L56,22 L58,24 L61,20 L60,16 L64,14 L64,21 L66,23 L67,29 L72,31 L72,36 L69,36 L70,44 L65,46 L65,54 L61,48 L57,48 L52,42 L47,44 L50,41 L46,38 L35,42 L32,39 L30,42 L29,40 L27,42 L27,38 L25,43 L21,45 L19,43 L16,45 L15,40 L9,36 L3,43 L3,36 L0,32 L4,27 L1,21 L4,17 L10,17 L5,15 L7,12 L16,14 L17,17 L24,17 L30,15 L29,12 L41,1 L43,2 L45,0 Z M64,54 L59,56 L62,52 L64,54 Z M75,50 L83,48 L78,50 L77,53 L73,50 L69,53 L67,48 L70,46 L75,50 Z M18,15 L18,13 L22,14 L18,15 Z M51,46 L48,46 L51,43 L51,46 Z"/>
      </g>
      <g class="hiroshima chugoku prefecture" data-code="34" stroke-linejoin="round" fill="#EEEEEE" fill-rule="nonzero" stroke="#000000" stroke-width="1.0" transform="translate(230.000000, 687.000000)">
        <title>広島 / Hiroshima</title>
        <path d="M73,40 L72,42 L69,40 L72,43 L70,42 L68,47 L63,45 L63,42 L54,44 L51,48 L39,49 L37,53 L30,55 L28,53 L25,56 L26,53 L23,47 L25,45 L17,44 L9,51 L10,54 L5,52 L4,46 L2,44 L2,37 L0,35 L5,30 L7,24 L6,22 L12,17 L20,19 L22,16 L27,18 L35,16 L32,11 L38,8 L45,0 L58,2 L65,4 L68,7 L66,14 L70,19 L69,24 L73,40 Z M45,53 L43,56 L41,53 L46,51 L45,53 Z M21,54 L20,50 L23,51 L22,59 L19,59 L21,56 L17,51 L21,54 Z M15,48 L16,50 L12,52 L15,48 Z M35,57 L33,56 L36,56 L35,57 Z M24,58 L26,58 L25,61 L28,61 L26,63 L20,62 L23,56 L26,56 L24,58 Z M59,49 L59,52 L56,49 L59,49 Z M57,50 L53,52 L54,50 L57,50 Z M60,44 L62,45 L59,47 L60,44 Z"/>
      </g>
      <g class="okayama chugoku prefecture" data-code="33" stroke-linejoin="round" fill="#EEEEEE" fill-rule="nonzero" stroke="#000000" stroke-width="1.0" transform="translate(295.000000, 673.000000)">
        <title>岡山 / Okayama</title>
        <polygon points="58 8 59 14 51 22 52 29 50 32 54 38 53 41 46 39 49 42 43 49 34 48 39 49 36 53 34 52 33 57 27 55 25 58 23 52 23 55 19 51 15 55 10 52 12 56 8 54 4 38 5 33 1 28 3 21 0 18 1 15 8 14 7 10 14 10 13 7 15 6 18 0 25 2 29 7 39 1 38 3 45 6 46 12"/>
      </g>
      <g class="shimane chugoku prefecture" data-code="32" stroke-linejoin="round" fill="#EEEEEE" fill-rule="nonzero" stroke="#000000" stroke-width="1.0" transform="translate(211.000000, 610.000000)">
        <title>島根 / Shimane</title>
        <path d="M74,14 L78,13 L75,17 L72,15 L73,19 L71,16 L74,14 Z M79,16 L77,19 L77,15 L79,14 L81,17 L79,16 Z M83,5 L88,0 L93,5 L92,9 L89,9 L91,11 L86,12 L83,5 Z M2,100 L10,98 L25,84 L35,78 L41,70 L52,65 L55,59 L53,55 L70,51 L76,46 L79,49 L87,48 L84,50 L82,51 L88,59 L87,68 L79,70 L81,73 L77,79 L64,77 L57,85 L51,88 L54,93 L46,95 L41,93 L39,96 L31,94 L25,99 L26,101 L24,107 L19,112 L21,114 L17,116 L18,120 L15,124 L13,122 L7,124 L5,120 L7,115 L2,115 L0,111 L4,106 L2,100 Z"/>
      </g>
      <g class="tottori chugoku prefecture" data-code="31" stroke-linejoin="round" fill="#EEEEEE" fill-rule="nonzero" stroke="#000000" stroke-width="1.0" transform="translate(288.000000, 658.000000)">
        <title>鳥取 / Tottori</title>
        <polygon points="7 33 0 31 4 25 2 22 10 20 11 11 5 3 7 2 9 6 15 8 23 4 34 6 55 5 64 0 71 17 71 21 65 23 53 27 52 21 45 18 46 16 36 22 32 17 25 15 22 21 20 22 21 25 14 25 15 29 8 30"/>
      </g>
      <g class="wakayama kinki prefecture" data-code="30" stroke-linejoin="round" fill="#EEEEEE" fill-rule="nonzero" stroke="#000000" stroke-width="1.0" transform="translate(385.000000, 737.000000)">
        <title>和歌山 / Wakayama</title>
        <path d="M41,32 L44,38 L49,41 L45,46 L46,50 L38,55 L37,59 L35,59 L36,56 L19,51 L14,44 L17,41 L9,37 L4,30 L0,30 L3,25 L0,24 L6,21 L1,18 L5,16 L4,14 L8,14 L0,6 L2,3 L5,6 L31,0 L35,9 L31,10 L25,17 L30,24 L28,30 L41,32 Z M49,23 L49,26 L44,29 L44,26 L49,23 Z"/>
      </g>
      <g class="nara kinki prefecture" data-code="29" stroke-linejoin="round" fill="#EEEEEE" fill-rule="nonzero" stroke="#000000" stroke-width="1.0" transform="translate(410.000000, 712.000000)">
        <title>奈良 / Nara</title>
        <polygon points="24 48 19 51 19 54 17 54 17 57 16 57 3 55 5 49 0 42 6 35 10 34 6 25 8 20 6 11 11 0 17 5 21 2 25 5 27 3 29 7 26 8 28 9 27 13 36 18 28 24 31 29 29 30 31 33 29 37 30 44 29 47"/>
      </g>
      <g class="hyogo kinki prefecture" data-code="28" stroke-linejoin="round" fill="#EEEEEE" fill-rule="nonzero" stroke="#000000" stroke-width="1.0" transform="translate(345.000000, 655.000000)">
        <title>兵庫 / Hyogo</title>
        <path d="M31,90 L23,93 L23,88 L20,89 L20,86 L38,67 L39,69 L32,79 L35,88 L31,90 Z M3,59 L4,56 L0,50 L2,47 L1,40 L9,32 L8,26 L14,24 L14,20 L7,3 L16,0 L33,1 L32,5 L36,10 L41,9 L42,11 L42,17 L36,17 L35,23 L42,28 L47,26 L49,33 L59,35 L58,40 L55,41 L56,45 L62,48 L60,49 L62,60 L59,62 L53,60 L40,66 L25,56 L11,57 L11,53 L8,58 L5,56 L3,59 Z"/>
      </g>
      <g class="osaka kinki prefecture" data-code="27" stroke-linejoin="round" fill="#EEEEEE" fill-rule="nonzero" stroke="#000000" stroke-width="1.0" transform="translate(387.000000, 695.000000)">
        <title>大阪 / Osaka</title>
        <polygon points="16 0 24 8 28 5 27 8 31 9 34 17 29 28 31 37 29 42 3 48 0 45 7 44 14 37 17 28 19 30 17 22 20 20 18 9 20 8 14 5 13 1"/>
      </g>
      <g class="kyoto kinki prefecture" data-code="26" stroke-linejoin="round" fill="#EEEEEE" fill-rule="nonzero" stroke="#000000" stroke-width="1.0" transform="translate(377.000000, 649.000000)">
        <title>京都 / Kyoto</title>
        <polygon points="44 63 41 55 37 54 38 51 34 54 26 46 27 41 17 39 15 32 10 34 3 29 4 23 10 23 10 17 9 15 4 16 0 11 1 7 3 10 2 8 19 0 23 7 15 14 18 15 20 11 20 15 24 17 23 21 25 18 27 19 25 14 31 11 32 14 31 20 34 25 46 27 51 32 48 46 51 56 55 56 59 62 60 66 58 68 54 65 50 68"/>
      </g>
      <g class="shiga kinki prefecture" data-code="25" stroke-linejoin="round" fill="#EEEEEE" fill-rule="nonzero" stroke="#000000" stroke-width="1.0" transform="translate(423.000000, 655.000000)">
        <title>滋賀 / Shiga</title>
        <path d="M20,0 L27,3 L28,9 L31,9 L34,16 L35,19 L31,29 L33,30 L34,40 L30,50 L24,53 L17,50 L16,55 L13,56 L9,50 L5,50 L2,40 L5,26 L0,21 L3,17 L6,18 L9,11 L12,13 L18,10 L18,7 L21,8 L20,0 Z M20,13 L20,16 L18,13 L14,16 L16,24 L8,32 L8,36 L5,42 L7,45 L9,36 L15,35 L16,31 L25,25 L26,21 L20,13 Z"/>
      </g>
      <g class="mie kinki prefecture" data-code="24" stroke-linejoin="round" fill="#EEEEEE" fill-rule="nonzero" stroke="#000000" stroke-width="1.0" transform="translate(426.000000, 683.000000)">
        <title>三重 / Mie</title>
        <polygon points="8 95 3 92 0 86 1 86 1 83 3 83 8 80 8 77 13 76 14 73 13 66 15 62 13 59 15 58 12 53 20 47 11 42 12 38 10 37 13 36 11 32 10 28 13 27 14 22 21 25 27 22 31 12 30 2 36 0 43 7 48 15 42 16 43 20 36 32 35 40 51 47 53 52 56 51 55 55 50 55 55 56 55 61 51 62 53 60 50 58 49 60 43 61 46 57 42 57 39 62 39 60 36 63 34 61 34 64 32 62 25 66 22 68 23 73 21 72 22 70 18 73 22 77 20 77 22 80 19 78 20 81 13 85"/>
      </g>
    </g>
  </g>
</svg>